<svg height="63.977142mm" viewBox="0 0 489.05328 63.977139" width="489.05328mm" xmlns="http://www.w3.org/2000/svg"><g transform="translate(-286.93305 473.64036)"><g fill="#ef5350"><path d="m318.92166-473.64036c-17.66105 0-31.98861 14.32753-31.98861 31.98855 0 17.66104 14.32756 31.98859 31.98861 31.98859 17.66097 0 31.98852-14.32755 31.98852-31.98859 0-17.66102-14.32755-31.98855-31.98852-31.98855z" opacity=".98" stroke-width="3.205265"/><g stroke-width="1.992878"><path d="m376.45609-414.22977v-55.24257h33.32091v6.61636h-25.58855v16.66045h22.71881v6.53664h-22.71881v25.42912z"/><path d="m428.77535-419.57068q2.6306 0 4.62348-.0797 2.07259-.15943 3.42775-.4783v-12.35584q-.79715-.39857-2.6306-.63772-1.75373-.31886-4.30461-.31886-1.67402 0-3.58718.23915-1.83345.23914-3.42775 1.03629-1.51459.71744-2.55089 2.0726-1.03629 1.27544-1.03629 3.42775 0 3.98575 2.55088 5.58005 2.55088 1.51459 6.93521 1.51459zm-.63772-37.14724q4.46405 0 7.49322 1.19573 3.10889 1.11601 4.94234 3.26832 1.91316 2.07259 2.71031 5.02205.79716 2.86974.79716 6.37721v25.90741q-.95659.15943-2.71032.47829-1.67402.23914-3.82632.47829-2.15231.23914-4.70319.39857-2.47117.23915-4.94234.23915-3.50747 0-6.45693-.71744-2.94945-.71743-5.10176-2.23202-2.15231-1.5943-3.34804-4.14519-1.19572-2.55088-1.19572-6.13806 0-3.42775 1.35515-5.89892 1.43487-2.47117 3.82633-3.98575 2.39145-1.51459 5.58006-2.23203 3.1886-.71743 6.69607-.71743 1.11601 0 2.31173.15943 1.19573.0797 2.23203.31886 1.11601.15943 1.91316.31886.79715.15943 1.11601.23914v-2.07259q0-1.83345-.39857-3.58718-.39858-1.83345-1.43488-3.1886-1.03629-1.43487-2.86974-2.23203-1.75373-.87686-4.62348-.87686-3.66689 0-6.45692.558-2.71032.47829-4.06547 1.0363l-.87687-6.13806q1.43487-.63772 4.78291-1.19573 3.34803-.63772 7.25407-.63772z"/><path d="m465.96121-419.57068q4.54377 0 6.69607-1.19573 2.23203-1.19572 2.23203-3.82632 0-2.71032-2.15231-4.30462-2.15231-1.5943-7.09465-3.58718-2.39145-.95658-4.62347-1.91316-2.15231-1.0363-3.74661-2.39145-1.59431-1.35516-2.55089-3.26832-.95658-1.91317-.95658-4.70319 0-5.50035 4.06547-8.68895 4.06547-3.26832 11.0804-3.26832 1.75374 0 3.50747.23914 1.75373.15943 3.26832.4783 1.51458.23914 2.6306.558 1.19572.31886 1.83344.55801l-1.35515 6.37721q-1.19573-.63773-3.74661-1.27545-2.55089-.71743-6.13807-.71743-3.10889 0-5.42062 1.27544-2.31174 1.19573-2.31174 3.82632 0 1.35516.47829 2.39146.558 1.03629 1.5943 1.91316 1.11601.79715 2.71031 1.51459 1.59431.71743 3.82633 1.51459 2.94946 1.11601 5.2612 2.23202 2.31173 1.03629 3.90604 2.47117 1.67401 1.43487 2.55088 3.50746.87687 1.99288.87687 4.94234 0 5.73949-4.30462 8.68895-4.2249 2.94945-12.1167 2.94945-5.50034 0-8.60923-.95658-3.10889-.87686-4.2249-1.35515l1.35516-6.37721q1.27544.47829 4.06547 1.43487 2.79003.95658 7.4135.95658z"/><path d="m498.74903-455.68162h15.70388v6.21777h-15.70388v19.13163q0 3.10889.47829 5.18148.47829 1.99288 1.43487 3.18861.95658 1.11601 2.39146 1.5943 1.43487.47829 3.34803.47829 3.34804 0 5.34091-.71744 2.0726-.79715 2.86975-1.11601l1.43487 6.13807q-1.11601.558-3.90604 1.35515-2.79003.87687-6.37721.87687-4.2249 0-7.01493-1.0363-2.71031-1.11601-4.38433-3.26832-1.67402-2.1523-2.39145-5.26119-.63772-3.18861-.63772-7.33379v-36.98782l7.4135-1.27544z"/><path d="m561.27309-414.22977q-1.35516-3.58718-2.55089-7.01493-1.19572-3.50746-2.47117-7.09464h-25.03054l-5.02205 14.10957h-8.05123q3.18861-8.76866 5.97864-16.18216 2.79002-7.49322 5.42062-14.18929 2.71032-6.69607 5.34092-12.75442 2.63059-6.13807 5.50034-12.1167h7.09464q2.86975 5.97863 5.50035 12.1167 2.63059 6.05835 5.26119 12.75442 2.71032 6.69607 5.50035 14.18929 2.79002 7.4135 5.97863 16.18216zm-7.25408-20.48678q-2.55088-6.93521-5.10177-13.39214-2.47116-6.53664-5.18148-12.51527-2.79003 5.97863-5.34091 12.51527-2.47117 6.45693-4.94234 13.39214z"/><path d="m591.81269-470.03034q11.63841 0 17.85619 4.46404 6.29749 4.38433 6.29749 13.153 0 4.7829-1.75373 8.21065-1.67402 3.34804-4.94234 5.50034-3.1886 2.0726-7.81208 3.02918-4.62348.95658-10.44268.95658h-6.13806v20.48678h-7.73237v-54.44542q3.26832-.79715 7.25408-1.03629 4.06547-.31886 7.4135-.31886zm.63772 6.77578q-4.94233 0-7.57293.23915v21.68251h5.8192q3.98576 0 7.17436-.4783 3.1886-.558 5.34091-1.75373 2.23203-1.27544 3.42775-3.42775 1.19573-2.15231 1.19573-5.50034 0-3.1886-1.27544-5.2612-1.19573-2.07259-3.34804-3.26832-2.07259-1.27544-4.86262-1.75373-2.79003-.47829-5.89892-.47829z"/><path d="m625.56581-469.47234h7.73237v55.24257h-7.73237z"/></g><g stroke-width=".264583"><path d="m662.68514-413.71556q-3.59833 0-6.24416-1.11125-2.64584-1.11125-4.33917-3.01625-1.69333-1.95791-2.54-4.60375-.79375-2.64583-.79375-5.715v-23.01875h5.13292v22.43667q0 5.50333 2.43416 7.99042 2.43417 2.48708 6.35 2.48708 1.95792 0 3.54542-.58208 1.64042-.635 2.80458-1.905 1.16417-1.27 1.79917-3.22792.635-2.01083.635-4.7625v-22.43667h5.13292v23.01875q0 3.06917-.84667 5.715-.79375 2.64584-2.54 4.60375-1.69333 1.905-4.33917 3.01625-2.59291 1.11125-6.19125 1.11125z"/><path d="m691.49827-418.05472q3.01625 0 4.445-.79375 1.48166-.79375 1.48166-2.54 0-1.79917-1.42875-2.8575-1.42875-1.05834-4.70958-2.38125-1.5875-.635-3.06917-1.27-1.42875-.68792-2.48708-1.5875-1.05833-.89959-1.69333-2.16959-.635-1.27-.635-3.12208 0-3.65125 2.69875-5.76792 2.69875-2.16958 7.35541-2.16958 1.16417 0 2.32834.15875 1.16416.10583 2.16958.3175 1.00542.15875 1.74625.37042.79375.21166 1.21708.37041l-.89958 4.23334q-.79375-.42334-2.48708-.84667-1.69334-.47625-4.07459-.47625-2.06375 0-3.59833.84667-1.53458.79375-1.53458 2.54 0 .89958.3175 1.5875.37041.68791 1.05833 1.27.74083.52916 1.79917 1.00541 1.05833.47625 2.54 1.00542 1.95791.74083 3.4925 1.48167 1.53458.68791 2.59291 1.64041 1.11125.9525 1.69334 2.32834.58208 1.32291.58208 3.28083 0 3.81-2.8575 5.76792-2.80458 1.95791-8.04333 1.95791-3.65125 0-5.715-.635-2.06375-.58208-2.80458-.89958l.89958-4.23333q.84667.3175 2.69875.9525 1.85208.635 4.92125.635z"/><path d="m707.12522-428.21472q0-3.65125 1.05833-6.35 1.05833-2.75167 2.80458-4.55084 1.74625-1.79916 4.02167-2.69875 2.27542-.89958 4.65667-.89958 5.55625 0 8.51958 3.4925 2.96333 3.43958 2.96333 10.53042 0 .3175 0 .84666 0 .47625-.0529.89959h-18.83834q.3175 4.28625 2.48709 6.50875 2.16958 2.2225 6.77333 2.2225 2.59292 0 4.33917-.42334 1.79916-.47625 2.69875-.89958l.68791 4.1275q-.89958.47625-3.175 1.00542-2.2225.52916-5.08.52916-3.59833 0-6.24416-1.05833-2.59292-1.11125-4.28625-3.01625-1.69334-1.905-2.54-4.49792-.79375-2.64583-.79375-5.76791zm18.89125-2.69875q.0529-3.33375-1.69334-5.45042-1.69333-2.16958-4.70958-2.16958-1.69333 0-3.01625.68791-1.27.635-2.16958 1.69334-.89959 1.05833-1.42875 2.43416-.47625 1.37584-.635 2.80459z"/><path d="m748.37872-442.60806q.635 0 1.42875.10584.84667.0529 1.64042.21166.79375.10584 1.42875.26459.68792.10583 1.00542.21166l-.84667 4.28625q-.58208-.21166-1.95792-.47625-1.32291-.3175-3.43958-.3175-1.37583 0-2.75167.3175-1.32291.26459-1.74625.37042v23.12458h-4.92125v-26.3525q1.74625-.635 4.33917-1.16416 2.59292-.58209 5.82083-.58209z"/><path d="m765.0855-418.05472q3.01625 0 4.445-.79375 1.48167-.79375 1.48167-2.54 0-1.79917-1.42875-2.8575-1.42875-1.05834-4.70959-2.38125-1.5875-.635-3.06916-1.27-1.42875-.68792-2.48709-1.5875-1.05833-.89959-1.69333-2.16959-.635-1.27-.635-3.12208 0-3.65125 2.69875-5.76792 2.69875-2.16958 7.35542-2.16958 1.16416 0 2.32833.15875 1.16417.10583 2.16958.3175 1.00542.15875 1.74625.37042.79375.21166 1.21708.37041l-.89958 4.23334q-.79375-.42334-2.48708-.84667-1.69333-.47625-4.07458-.47625-2.06375 0-3.59834.84667-1.53458.79375-1.53458 2.54 0 .89958.3175 1.5875.37042.68791 1.05833 1.27.74084.52916 1.79917 1.00541 1.05833.47625 2.54 1.00542 1.95792.74083 3.4925 1.48167 1.53458.68791 2.59292 1.64041 1.11124.9525 1.69333 2.32834.58208 1.32291.58208 3.28083 0 3.81-2.8575 5.76792-2.80458 1.95791-8.04333 1.95791-3.65125 0-5.715-.635-2.06375-.58208-2.80458-.89958l.89958-4.23333q.84667.3175 2.69875.9525 1.85208.635 4.92125.635z"/></g></g><g transform="matrix(2.403445 0 0 2.403445 289.04947 -471.91625)"><path d="m0 0h24v24h-24z" fill="none"/><path d="m16.433527 12.592117c1.228089 0 2.215901-.99671 2.215901-2.2248 0-1.2280903-.987812-2.2248008-2.215901-2.2248008-1.22809 0-2.224801.9967105-2.224801 2.2248008 0 1.22809.996711 2.2248 2.224801 2.2248zm-6.6744007-.88992c1.4772667 0 2.6608607-1.192493 2.6608607-2.6697607 0-1.4772674-1.183594-2.6697604-2.6608607-2.6697604-1.4772674 0-2.6697603 1.192493-2.6697603 2.6697604 0 1.4772677 1.1924929 2.6697607 2.6697603 2.6697607zm6.6744007 2.66976c-1.628554 0-4.894561.818727-4.894561 2.447281v2.00232h9.789121v-2.00232c0-1.628554-3.266007-2.447281-4.89456-2.447281zm-6.6744007-.88992c-2.0735139 0-6.2294408 1.041207-6.2294408 3.114721v2.2248h6.2294408v-2.00232c0-.756432.2936737-2.082413 2.1091097-3.088023-.77423-.160186-1.521763-.249178-2.1091097-.249178z" fill="#fff" stroke-width=".88992"/></g></g></svg>